<?xml version="1.0" encoding="utf-8"?>
<!-- Generator: Adobe Illustrator 28.0.0, SVG Export Plug-In . SVG Version: 6.00 Build 0)  -->
<svg version="1.1" id="Layer_1" xmlns="http://www.w3.org/2000/svg" xmlns:xlink="http://www.w3.org/1999/xlink" x="0px" y="0px"
	 viewBox="0 0 195.5 38" style="enable-background:new 0 0 195.5 38;" xml:space="preserve">
<style type="text/css">
	.st0{clip-path:url(#SVGID_00000181771613098874192910000012948727045261674897_);}
	.st1{fill:#11325D;}
	.st2{fill:#FC6D0A;}
	.st3{fill:#FFFFFF;}
</style>
<g>
	<g>
		<defs>
			<rect id="SVGID_1_" width="195.5" height="38"/>
		</defs>
		<clipPath id="SVGID_00000027591472185241281460000004101816940671662509_">
			<use xlink:href="#SVGID_1_"  style="overflow:visible;"/>
		</clipPath>
		<g id="Logo_-_Normal" style="clip-path:url(#SVGID_00000027591472185241281460000004101816940671662509_);">
			<g id="Group_907">
				<path id="Path_998" class="st1" d="M67.8,37.6H60v-3.5c-1.8,2.4-4.7,3.9-7.8,3.8c-5.9,0-9.9-4.1-9.9-10.9V12h7.8v13.9
					c0,3.5,2,5.4,4.9,5.4c3,0,5-1.9,5-5.4V12h7.9L67.8,37.6z"/>
				<path id="Path_999" class="st1" d="M87.8,11.6c6.3,0,11.3,5.1,11.3,13.1S94.1,38,87.8,38c-3.1,0.2-6.1-1.3-7.9-4v3.6H72v-34h7.9
					v12C81.7,13,84.7,11.5,87.8,11.6 M85.5,18.5c-2.9,0-5.6,2.2-5.6,6.3s2.7,6.3,5.6,6.3c3,0,5.6-2.3,5.6-6.4S88.5,18.5,85.5,18.5"
					/>
				<rect id="Rectangle_392" x="101.9" y="12" class="st1" width="7.9" height="25.6"/>
				<path id="Path_1000" class="st1" d="M125.4,11.6c6.4,0,11,3.5,12.3,9.6h-8.4c-0.5-1.8-2.2-3-4.1-2.9c-2.8,0-4.7,2.2-4.7,6.5
					s1.9,6.5,4.7,6.5c1.9,0.1,3.6-1.1,4.1-2.9h8.4c-1.3,5.9-5.9,9.6-12.3,9.6c-7.5,0-12.9-5.1-12.9-13.2
					C112.5,16.7,117.8,11.6,125.4,11.6"/>
				<path id="Path_1001" class="st1" d="M154,38c-7.5,0-13.2-5.1-13.2-13.2s5.8-13.2,13.3-13.2s13.3,5.1,13.3,13.2S161.5,38,154,38
					 M154,31.2c2.8,0,5.4-2.1,5.4-6.4c0-4.4-2.6-6.4-5.3-6.4c-2.8,0-5.3,2-5.3,6.4C148.8,29.1,151.2,31.2,154,31.2"/>
				<path id="Path_1002" class="st1" d="M187.6,23.7c0-3.5-1.9-5.4-4.9-5.4s-4.9,1.9-4.9,5.4v13.9H170V12h7.9v3.4
					c1.8-2.4,4.7-3.8,7.8-3.7c5.9,0,9.9,4,9.9,10.9v15h-7.8L187.6,23.7z"/>
				<path id="Path_1022" class="st1" d="M110.2,5c0-2.4-1.9-4.4-4.4-4.4c-2.4,0-4.3,1.9-4.3,4.3s1.9,4.3,4.3,4.3S110.2,7.4,110.2,5
					L110.2,5"/>
				<path id="Path_1025" class="st2" d="M18.3,7.1H9.1v10.7h9.2c3.7,0,5.8-1.6,5.8-5.5C24.1,8.7,22.1,7.1,18.3,7.1"/>
				<path id="Path_1023" class="st2" d="M34.2,0H3.8C1.7,0,0,1.7,0,3.8l0,0v30.5c0,2,1.7,3.7,3.8,3.7H25c-0.7-2.4-0.7-5.6-1.1-8.4
					c-0.6-4-2.1-5.8-6.4-5.8H9.1v13.4H4.3c0,0-3.5,0-3.5-3.2c0-7.2,0-27.8,0-30.2c0-1.7,1.4-3.2,3.1-3.2l0,0h17.4
					c6.8,0,11.2,4.7,11.2,10.5c0,4.5-1.8,7.9-6,9.6v0.1c4.1,1.1,5.3,5.1,5.6,8.9c0.1,2.2,0.1,6,1.2,8.3h1c2.1,0,3.8-1.7,3.8-3.8l0,0
					V3.8C38,1.7,36.3,0,34.2,0"/>
				<path id="Path_1024" class="st3" d="M18.4,17.9H9.2V7.2h9.2c3.7,0,5.8,1.6,5.8,5.3C24.1,16.3,22.1,17.9,18.4,17.9 M26.5,20.8
					v-0.1c4.2-1.7,6-5.1,6-9.6c0-5.8-4.3-10.5-11.2-10.5H3.9C2.2,0.6,0.8,2,0.8,3.8l0,0c0,2.4,0,23,0,30.2c0,3.2,3.5,3.2,3.5,3.2
					h4.9V23.8h8.4c4.2,0,5.8,1.8,6.4,5.8c0.4,2.7,0.3,6,1.1,8.4h8.2c-1.1-2.3-1.1-6.1-1.2-8.3C31.8,25.9,30.6,21.9,26.5,20.8"/>
			</g>
		</g>
	</g>
</g>
</svg>
